# xmcd
#
# Track frame offsets:
# 150
# 23915
# 46652
# 67217
# 92956
# 115014
# 153503
# 172101
# 195866
# 234355
# 260917
# 278523
# 309915
#
# Disc length: 4350 seconds
#
# Revision: 0
# Processed by: cddbd v1.4PL0 Copyright (c) Steve Scherf et al.
# Submitted via: Audion 2.5.0 (http://www.panic.com/audion/)
#
DISCID=a910fc0d
DTITLE=ssssbbbbbbbbbbbbbbbbbbb - dddvvvv bbbb
DYEAR=1900
DGENRE=
TTITLE0=sss
TTITLE1=ssssss
TTITLE2=sss
TTITLE3=sss
TTITLE4=bbbbb
TTITLE5=bbbbbbbbb
TTITLE6=bbbbbbff
TTITLE7=ffffffff
TTITLE8=gggggggg
TTITLE9=ffffffffff
TTITLE10=fffffffff
TTITLE11=ffffffff
TTITLE12=ffffffff
EXTD=
EXTT0=
EXTT1=
EXTT2=
EXTT3=
EXTT4=
EXTT5=
EXTT6=
EXTT7=
EXTT8=
EXTT9=
EXTT10=
EXTT11=
EXTT12=
PLAYORDER=
